<?xml version="1.0" encoding="UTF-8"?>
<!DOCTYPE svg PUBLIC "-//W3C//DTD SVG 1.1//EN" "http://www.w3.org/Graphics/SVG/1.1/DTD/svg11.dtd">
<!-- Creator: CorelDRAW 2021 (64 Bit) -->
<svg xmlns="http://www.w3.org/2000/svg" xml:space="preserve" width="138.29mm" height="59.1098mm" version="1.1" style="shape-rendering:geometricPrecision; text-rendering:geometricPrecision; image-rendering:optimizeQuality; fill-rule:evenodd; clip-rule:evenodd"
viewBox="0 0 13829 5910.98"
 xmlns:xlink="http://www.w3.org/1999/xlink"
 xmlns:xodm="http://www.corel.com/coreldraw/odm/2003">
 <defs>
  <style type="text/css">
   <![CDATA[
    .str0 {stroke:#373435;stroke-width:7.62;stroke-miterlimit:22.9256}
    .fil7 {fill:#FEFEFE}
    .fil6 {fill:#373435}
    .fil1 {fill:#00AE4C}
    .fil2 {fill:#21358C}
    .fil4 {fill:#6A0C0D}
    .fil0 {fill:#9C2D93}
    .fil3 {fill:#F05423}
    .fil5 {fill:#FBB016}
    .fil8 {fill:#FEFEFE;fill-rule:nonzero}
   ]]>
  </style>
 </defs>
 <g id="Camada_x0020_1">
  <metadata id="CorelCorpID_0Corel-Layer"/>
  <g id="_1976075385840">
   <polygon class="fil0" points="2501.79,2150.2 4537.1,2150.2 4537.1,3801.34 2501.79,3801.34 "/>
   <polygon class="fil1" points="4784.05,2150.2 6847.65,2150.2 6847.65,3987.07 4784.05,3987.07 "/>
   <polygon class="fil2" points="196.55,2150.2 2278.64,2150.2 2278.64,3263.54 196.55,3263.54 "/>
   <polygon class="fil3" points="7073.97,2150.2 9134.88,2150.2 9134.88,3992.82 7073.97,3992.82 "/>
   <polygon class="fil4" points="9363.9,2188.79 11410.58,2188.79 11410.58,3795.6 9363.9,3795.6 "/>
   <polygon class="fil5" points="11630.84,2150.2 13707.58,2150.2 13707.58,3213.54 11630.84,3213.54 "/>
   <polygon class="fil0" points="2501.79,587.69 4485.36,587.69 4485.36,3801.34 2501.79,3801.34 "/>
   <polygon class="fil1" points="4784.05,773.42 6767.61,773.42 6767.61,3987.07 4784.05,3987.07 "/>
   <polygon class="fil2" points="196.55,49.89 2180.11,49.89 2180.11,3263.54 196.55,3263.54 "/>
   <polygon class="fil3" points="7073.97,779.17 9057.54,779.17 9057.54,3992.82 7073.97,3992.82 "/>
   <polygon class="fil4" points="9363.9,581.94 11347.47,581.94 11347.47,3795.6 9363.9,3795.6 "/>
   <polygon class="fil5" points="11630.84,-0.12 13614.4,-0.12 13614.4,3213.54 11630.84,3213.54 "/>
   <polygon class="fil6 str0" points="-0.03,2150.2 60.75,2150.2 60.75,3371.88 2278.64,3371.88 2278.64,2150.2 2319.21,2150.2 2319.21,3875.67 4537.1,3875.67 4537.1,2150.2 4629.76,2150.2 4629.76,4084.15 6847.65,4084.15 6847.65,2150.2 6992.41,2150.2 6992.41,4072.58 9210.3,4072.58 9210.3,2150.2 9279.8,2150.2 9279.8,3864.1 11497.69,3864.1 11497.69,2150.2 11567.16,2150.2 11567.16,3366.1 13785.05,3366.1 13785.05,2150.2 13829.03,2150.2 13829.03,5911.1 -0.03,5911.1 "/>
   <path class="fil7" d="M413.47 965.21l1549.72 0 0 1826.38 -1549.72 0 0 -1826.38zm433.2 481.76l683.32 0 0 858.44 -683.32 0 0 -858.44z"/>
   <path class="fil7" d="M2840.52 1922.22l995.68 0 0 -631.5 382.31 0 0 631.5 0 1407.7 0 0.04 -382.31 0 0 -0.04 -995.68 0 0 -1407.7zm348.26 393.48l593.03 0 0 670.1 -593.03 0 0 -670.1z"/>
   <path class="fil7" d="M5024.72 1714.27l1549.73 0 0 1826.38 -1549.73 0 0 -1826.38zm433.2 481.76l683.33 0 0 858.43 -683.33 0 0 -858.43z"/>
   <polygon class="fil7" points="8387.64,1785.82 8816.7,1785.82 8816.7,3463.74 8387.64,3463.74 7774.71,2566.87 7774.71,3463.74 7345.65,3463.74 7345.65,1785.82 7774.71,1785.82 8387.64,2732.3 "/>
   <polygon class="fil7" points="10145.92,2988.25 11123.63,2988.25 11123.63,3341.41 10145.92,3341.41 9716.86,3341.41 9716.86,2988.25 9716.86,2301.99 9564.5,2301.99 9564.5,1948.83 9716.86,1948.83 9716.86,1299.36 10145.92,1299.36 10145.92,1948.83 10617.23,1948.83 10617.23,2301.99 10145.92,2301.99 "/>
   <path class="fil7" d="M11860.3 951.55l1549.72 0 0 1826.38 -1549.72 0 0 -1826.38zm433.2 481.76l683.32 0 0 858.43 -683.32 0 0 -858.43z"/>
   <path class="fil8" d="M1192.26 5623.1l-376.93 0c-54.55,0 -93.3,-12.06 -116.56,-36.46 -23.25,-24.4 -35.02,-63.44 -35.02,-116.55l0 -927.26c0,-54.26 12.06,-93.3 35.88,-117.13 23.83,-23.82 62.3,-35.88 115.7,-35.88l399.61 0c58.85,0 109.95,3.73 153.01,10.91 43.35,7.46 82.1,21.24 116.26,42.2 29.29,17.22 54.84,39.33 77.52,66.03 22.39,26.69 39.32,55.98 51.09,88.13 11.78,32.44 17.8,66.31 17.8,102.2 0,123.44 -61.72,213.87 -185.16,271 162.2,51.67 243.15,151.86 243.15,301.14 0,68.9 -17.8,131.2 -53.11,186.31 -35.31,55.41 -82.96,96.17 -142.96,122.3 -37.61,15.79 -80.67,26.98 -129.47,33.3 -48.8,6.6 -105.93,9.76 -170.81,9.76zm-18.66 -547.74l-260.09 0 0 359.99 268.41 0c169.09,0 253.49,-60.86 253.49,-182.58 0,-62.29 -21.82,-107.37 -65.74,-135.5 -43.63,-27.85 -109.09,-41.91 -196.07,-41.91zm-260.09 -497.79l0 318.65 229.08 0c62.3,0 110.24,-6.03 144.12,-17.8 34.16,-11.77 59.99,-34.16 78.08,-67.17 14.07,-23.54 20.96,-49.95 20.96,-78.95 0,-62.29 -22.11,-103.63 -66.6,-124.02 -44.21,-20.38 -111.96,-30.71 -202.68,-30.71l-202.96 0zm2289.26 -57.13l0 897.69 506.4 0c40.2,0 71.2,9.76 92.73,29.28 21.82,19.81 32.44,44.5 32.44,74.06 0,30.15 -10.62,54.84 -31.87,73.5 -21.24,18.66 -52.53,28.13 -93.3,28.13l-603.14 0c-54.26,0 -93.3,-12.06 -117.13,-36.17 -23.83,-24.12 -35.89,-63.16 -35.89,-116.84l0 -949.65c0,-50.24 11.49,-88.13 34.17,-113.4 22.68,-25.26 52.53,-37.89 89.56,-37.89 37.32,0 67.75,12.34 91.01,37.32 23.25,24.97 35.02,63.16 35.02,113.97zm2616.25 962.85l-58.86 -154.73 -501.23 0 -58.85 157.89c-22.97,61.72 -42.49,103.35 -58.85,124.88 -16.08,21.53 -42.78,32.44 -79.81,32.44 -31.29,0 -59.14,-11.48 -83.25,-34.45 -24.12,-22.97 -36.17,-49.09 -36.17,-78.08 0,-16.94 2.87,-34.45 8.32,-52.25 5.74,-18.09 14.93,-42.78 27.85,-74.93l315.21 -800.37c9.18,-22.97 19.81,-50.52 32.44,-82.68 12.63,-32.44 26.12,-59.14 40.48,-80.38 14.35,-21.24 33.01,-38.47 56.26,-51.67 23.26,-13.21 51.96,-19.81 86.13,-19.81 35.02,0 64.01,6.6 87.27,19.81 23.25,13.2 41.91,30.14 56.26,50.81 14.36,20.67 26.42,43.06 36.18,66.89 9.76,23.83 22.39,55.69 37.32,95.31l322.1 795.49c25.26,60.57 37.89,104.49 37.89,132.05 0,28.42 -11.77,54.83 -35.6,78.66 -23.83,23.83 -52.82,35.6 -86.41,35.6 -19.52,0 -36.46,-3.45 -50.52,-10.62 -13.78,-6.89 -25.55,-16.37 -35.31,-28.42 -9.48,-12.06 -19.52,-30.72 -30.43,-55.41 -11.2,-24.97 -20.39,-47.08 -28.42,-66.03zm-494.35 -342.48l368.32 0 -185.74 -508.12 -182.58 508.12zm2324 -621.81l479.99 726.88 0 -733.77c0,-47.65 10.34,-83.25 30.72,-107.08 20.38,-23.82 47.94,-35.88 82.68,-35.88 35.6,0 64.02,11.77 84.69,35.6 20.67,23.82 31,59.71 31,107.36l0 969.46c0,108.23 -44.78,162.2 -134.35,162.2 -22.39,0 -42.49,-3.16 -60.57,-9.76 -17.8,-6.32 -34.74,-16.65 -50.24,-30.43 -15.79,-14.07 -30.15,-30.43 -43.64,-49.38 -13.49,-18.66 -26.98,-37.89 -40.48,-57.41l-468.22 -717.7 0 721.72c0,47.08 -10.91,82.67 -32.73,106.79 -22.1,24.11 -50.23,36.17 -84.4,36.17 -35.31,0 -63.73,-12.06 -84.97,-36.46 -21.53,-24.4 -32.15,-60 -32.15,-106.5l0 -950.8c0,-40.48 4.59,-72.06 13.49,-95.02 10.62,-25.27 28.42,-45.94 53.11,-62.01 24.69,-15.79 51.39,-23.83 79.81,-23.83 22.67,0 41.91,3.73 57.7,10.91 16.07,7.46 30.14,17.22 42.2,29.57 12.06,12.34 24.4,28.13 37.03,47.94 12.63,19.52 25.84,39.9 39.33,61.43zm3087.62 714.54c0,39.33 -9.47,81.81 -29,127.46 -19.23,45.64 -49.66,90.43 -91.29,134.35 -41.33,44.21 -94.44,79.81 -158.75,107.37 -64.59,27.27 -139.81,41.05 -225.64,41.05 -64.88,0 -124.02,-6.03 -177.41,-18.37 -53.11,-12.35 -101.63,-31.58 -144.98,-57.71 -43.35,-25.83 -83.54,-60.28 -120,-102.77 -32.44,-38.75 -60.28,-81.82 -83.25,-129.76 -22.96,-47.94 -40.19,-99.33 -51.67,-153.58 -11.49,-54.55 -17.23,-112.25 -17.23,-173.4 0,-99.04 14.36,-188.03 43.35,-266.41 28.71,-78.65 70.34,-145.83 124.02,-201.52 53.97,-55.7 116.84,-98.18 189.18,-127.47 72.35,-28.99 149.57,-43.63 231.39,-43.63 99.9,0 188.61,19.81 266.69,59.71 77.8,39.62 137.51,88.99 179.14,147.56 41.34,58.56 62.29,113.68 62.29,165.93 0,28.71 -10.33,53.68 -30.43,75.79 -20.09,21.81 -44.5,32.72 -73.2,32.72 -31.87,0 -55.98,-7.75 -71.77,-22.68 -16.08,-15.21 -33.88,-41.33 -53.4,-78.37 -32.73,-61.14 -70.91,-106.79 -114.83,-137.22 -44.21,-30.14 -98.18,-45.36 -162.77,-45.36 -102.77,0 -184.3,39.04 -245.17,116.84 -60.86,78.09 -91.29,188.9 -91.29,332.44 0,95.88 13.5,175.69 40.48,239.42 26.7,63.73 64.88,111.1 114.26,142.68 49.38,31.29 107.08,47.08 173.39,47.08 71.77,0 132.35,-17.8 182.01,-53.4 49.66,-35.6 86.98,-87.85 112.25,-157.03 10.62,-32.44 23.82,-58.85 39.61,-79.52 15.51,-20.38 40.77,-30.72 75.5,-30.72 29.86,0 55.41,10.34 76.65,31.29 21.25,20.67 31.87,46.51 31.87,77.23zm1820.47 -864.39c128.03,0 237.7,25.84 329.27,77.8 91.58,51.67 161.05,125.45 208.13,221.05 47.08,95.59 70.63,207.84 70.63,336.74 0,95.31 -12.92,182 -38.76,259.8 -25.84,78.09 -64.31,145.55 -115.98,202.68 -51.67,57.13 -114.83,100.76 -190.04,131.19 -75.22,30.14 -161.05,45.36 -258.09,45.36 -96.45,0 -182.86,-15.5 -258.94,-46.79 -76.36,-31.01 -139.81,-74.93 -190.9,-131.49 -51.1,-56.55 -89.57,-124.59 -115.7,-204.39 -26.12,-79.52 -39.04,-165.65 -39.04,-258.09 0,-94.73 13.49,-181.43 40.77,-260.66 27.27,-78.95 66.6,-146.12 118.27,-201.82 51.39,-55.4 114.26,-97.89 188.32,-127.17 73.78,-29.57 157.9,-44.21 252.06,-44.21zm354.82 633.86c0,-90.14 -14.64,-168.51 -43.63,-234.82 -29.28,-66.03 -70.91,-115.98 -124.88,-150.15 -53.97,-33.87 -116.27,-50.81 -186.31,-50.81 -49.67,0 -95.89,9.48 -138.09,28.14 -42.48,18.94 -78.94,46.21 -109.37,82.1 -30.43,35.88 -54.55,81.82 -72.35,137.51 -17.51,55.98 -26.41,118.56 -26.41,188.03 0,70.34 8.9,133.5 26.41,190.34 17.8,56.55 42.78,103.63 74.93,140.95 32.15,37.32 69.19,65.17 110.81,83.54 41.92,18.66 87.56,27.85 137.51,27.85 64.02,0 122.58,-16.08 176.27,-47.95 53.39,-31.86 95.88,-81.24 127.75,-148.13 31.57,-66.6 47.36,-148.99 47.36,-246.6z"/>
  </g>
 </g>
</svg>
